<svg xmlns="http://www.w3.org/2000/svg" viewBox="0 0 472 420.42"><defs><style>.cls-1{fill:#21263e;}.cls-2{fill:#05ab9e;}.cls-2,.cls-4{stroke:#05ab9e;}.cls-10,.cls-11,.cls-12,.cls-13,.cls-14,.cls-2,.cls-4,.cls-5,.cls-7,.cls-8,.cls-9{stroke-linecap:round;stroke-width:5px;}.cls-10,.cls-11,.cls-12,.cls-13,.cls-14,.cls-2,.cls-5,.cls-7,.cls-8,.cls-9{stroke-linejoin:round;}.cls-3{fill:#f2f2f2;}.cls-12,.cls-13,.cls-4,.cls-7,.cls-8,.cls-9{fill:none;}.cls-4{stroke-miterlimit:10;}.cls-5{fill:#0d71b9;}.cls-5,.cls-7{stroke:#0d71b9;}.cls-6{fill:#ccc;}.cls-8{stroke:#f0f;}.cls-10,.cls-9{stroke:#8e3089;}.cls-10{fill:#8e3089;}.cls-11{fill:#d6075c;}.cls-11,.cls-12{stroke:#d6075c;}.cls-13,.cls-14{stroke:#f39325;}.cls-14{fill:#f39325;}</style></defs><title>about_1</title><g id="Livello_2" data-name="Livello 2"><g id="Livello_2-2" data-name="Livello 2"><ellipse class="cls-1" cx="236" cy="360.42" rx="236" ry="60"/><path class="cls-2" d="M440,289.79,335.16,243.56,50,285.51a9,9,0,0,0-7.26,6.12c-3.05,9.39-7.9,29.19-.48,43.6l112.85,66.65L442.05,350l-23.31-24.68-12.56-29.66Z"/><path class="cls-3" d="M442.05,350S429,330.3,440,289.79l-282.68,48a8.23,8.23,0,0,0-6.59,6c-3,11.17-8.76,38,.8,53.55A8.17,8.17,0,0,0,160,401Z"/><path class="cls-4" d="M442.05,350,160,401a8.17,8.17,0,0,1-8.44-3.68c-9.56-15.56-3.83-42.38-.8-53.55a8.23,8.23,0,0,1,6.59-6l282.68-48"/><path class="cls-3" d="M41.64,297.65s16.16-23.23-.24-56.08l336.05,27.61a152.39,152.39,0,0,0-3.8,26.35,127.8,127.8,0,0,0,1.61,28.11Z"/><polygon class="cls-5" points="41.41 241.57 377.45 269.18 397.95 219.13 87.67 196.8 41.41 241.57"/><path class="cls-6" d="M375.26,323.64l19.89-58.09s6.13-22.73,2.27-45.94l-20.49,50.05S365.26,303.12,375.26,323.64Z"/><path class="cls-7" d="M41.12,298.13l334.14,25.51,19.89-58.09s6.13-22.73,2.27-45.94l-20.49,50.05L41.4,241.57"/><path class="cls-3" d="M427,158.49l-268.6,25.78-97.2-38.84s-9.52,30.57-3,60.93l96.51,52.82L423.42,230.4S412,197.8,427,158.49Z"/><line class="cls-8" x1="158.37" y1="184.27" x2="61.17" y2="145.43"/><path class="cls-6" d="M154.67,259.18,58.16,206.36c-6.51-30.36,3-60.93,3-60.93l97.2,38.84S143.35,221,154.67,259.18Z"/><path class="cls-9" d="M427,158.49l-268.6,25.78-97.2-38.84s-9.52,30.57-3,60.93l96.51,52.82L423.42,230.4"/><polygon class="cls-10" points="61.17 145.43 303.75 119.36 426.97 158.49 158.37 184.27 61.17 145.43"/><path class="cls-3" d="M19.2,103.31s10,21.52-2.17,43.95L363.72,182.4l52.11-41.48s9.69-24,3.59-42.38l-52.34,36Z"/><path class="cls-6" d="M363.72,182.4l52.11-41.48s9.69-24,3.59-42.38l-52.34,36S370.82,170.23,363.72,182.4Z"/><polyline class="cls-11" points="19.2 103.31 132.51 69.36 418.94 98.02 367.08 134.51 19.2 103.31"/><path class="cls-12" d="M19.2,103.31l347.88,31.2L418.94,98c6.11,18.32-3.11,42.9-3.11,42.9L363.72,182.4,17,147.26"/><path class="cls-3" d="M406.63,93.91l-235.34,27.7a7.79,7.79,0,0,1-7.79-4c-3.13-5.86-6.43-18.17-.51-41.28a7.83,7.83,0,0,1,6.88-5.85L409,47S396.68,72.39,406.63,93.91Z"/><path class="cls-13" d="M409,47,169.87,70.45A7.83,7.83,0,0,0,163,76.3c-5.92,23.11-2.62,35.42.51,41.28a7.79,7.79,0,0,0,7.79,4l235.34-27.7"/><path class="cls-14" d="M171.29,121.61a7.79,7.79,0,0,1-7.79-4c-3.13-5.86-6.43-18.17-.51-41.28a7.83,7.83,0,0,1,6.88-5.85L409,47,247.34,3.08a16.6,16.6,0,0,0-5.87-.51L53,19.79a11.82,11.82,0,0,0-10.27,8.59c-4.65,16.46-3.46,28.32-1.9,34.94a11.75,11.75,0,0,0,6.91,8.15L167.4,121.53"/></g></g></svg>