<svg xmlns="http://www.w3.org/2000/svg" xmlns:xlink="http://www.w3.org/1999/xlink" viewBox="0 0 454.87 510.5"><defs><style>.cls-1{fill:none;}.cls-2{fill:url(#Sfumatura_senza_nome_2);}.cls-3{fill:url(#Sfumatura_senza_nome_2-2);}.cls-4{fill:#0971b7;}.cls-5,.cls-7{fill:#fff;}.cls-5{opacity:0.2;}.cls-6{fill:url(#Sfumatura_senza_nome_21);}.cls-8{fill:url(#Sfumatura_senza_nome_12);}.cls-9{fill:url(#Sfumatura_senza_nome_36);}.cls-10{fill:#20263f;opacity:0.5;}.cls-11{clip-path:url(#clip-path);}.cls-12{fill:url(#Sfumatura_senza_nome_14);}.cls-13{clip-path:url(#clip-path-2);}.cls-14{fill:url(#Sfumatura_senza_nome_15);}</style><linearGradient id="Sfumatura_senza_nome_2" x1="167.5" y1="510.5" x2="167.5" y2="284.5" gradientUnits="userSpaceOnUse"><stop offset="0" stop-color="#00a99d"/><stop offset="1" stop-color="#0971b7"/></linearGradient><linearGradient id="Sfumatura_senza_nome_2-2" x1="142.5" x2="142.5" xlink:href="#Sfumatura_senza_nome_2"/><linearGradient id="Sfumatura_senza_nome_21" x1="150" y1="310.5" x2="150" y2="31.49" gradientUnits="userSpaceOnUse"><stop offset="0" stop-color="#0971b7"/><stop offset="0.37" stop-color="#0974b6"/><stop offset="0.59" stop-color="#077cb2"/><stop offset="0.77" stop-color="#058aab"/><stop offset="0.93" stop-color="#029ea2"/><stop offset="1" stop-color="#00a99d"/></linearGradient><linearGradient id="Sfumatura_senza_nome_12" x1="345.06" y1="212.81" x2="120.53" y2="142.07" gradientUnits="userSpaceOnUse"><stop offset="0" stop-color="#00a99d"/><stop offset="0.36" stop-color="#048eaa"/><stop offset="0.73" stop-color="#0879b3"/><stop offset="0.98" stop-color="#0971b7"/></linearGradient><linearGradient id="Sfumatura_senza_nome_36" x1="82.5" y1="15" x2="187" y2="119.5" gradientUnits="userSpaceOnUse"><stop offset="0" stop-color="#d4145a"/><stop offset="1" stop-color="#c1272d"/></linearGradient><clipPath id="clip-path"><polygon class="cls-1" points="181.45 284.5 180 194.5 263.3 178.61 312 207.5 309 272.5 181.45 284.5"/></clipPath><linearGradient id="Sfumatura_senza_nome_14" x1="184.64" y1="170.53" x2="258.16" y2="297.88" gradientTransform="matrix(0.95, 0.02, -0.02, 1, 10.54, -3.71)" gradientUnits="userSpaceOnUse"><stop offset="0" stop-color="#f7931e"/><stop offset="0.04" stop-color="#f79622"/><stop offset="0.44" stop-color="#f6aa42"/><stop offset="0.77" stop-color="#f6b656"/><stop offset="1" stop-color="#f6bb5d"/></linearGradient><clipPath id="clip-path-2"><polygon class="cls-1" points="181.22 249.99 180 197.5 180.38 158.13 183 141.5 295 160.93 287.16 226.86 181.22 249.99"/></clipPath><linearGradient id="Sfumatura_senza_nome_15" x1="172.36" y1="140.34" x2="236.53" y2="251.49" gradientTransform="matrix(0.95, -0.02, -0.15, 1.01, 46.77, 6.06)" gradientUnits="userSpaceOnUse"><stop offset="0" stop-color="#93278f"/><stop offset="0.03" stop-color="#95268d"/><stop offset="1" stop-color="#d4145a"/></linearGradient></defs><title>account_mailbox</title><g id="Livello_2" data-name="Livello 2"><g id="text"><rect class="cls-2" x="151" y="284.5" width="33" height="226"/><rect class="cls-3" x="134" y="284.5" width="17" height="226"/><path class="cls-4" d="M172,298.5l.5,9.5s69.36,28.1,105,43c55,23,109.67,38.32,162,13,9.69-4.69,14.3-10.84,15.2-17.42v-9Z"/><rect class="cls-5" x="134" y="284.5" width="17" height="226"/><path class="cls-6" d="M0,237.5v-119s8-88,76-87,182,14,182,14l42,84-53,72-69,109Z"/><path class="cls-7" d="M349,273.5v-129s-4-97-91-99-86,120-86,120l1,134Z"/><path class="cls-7" d="M349.5,273s59.86,21.23,72,26c28,11,49,41,18,56-52.33,25.32-107,10-162-13-35.64-14.9-105-43-105-43L348,273.39"/><path class="cls-8" d="M181.5,297c-.09-35-1.09-141.57-.5-144.5,3-15,14-103,85-98,71.17,5,73,92,73,92l.28,128.3Z"/><polygon class="cls-9" points="97.5 0 150.5 0 150.5 156 140.5 156 140.5 31 97.5 22 97.5 0"/><ellipse class="cls-7" cx="145.5" cy="165.5" rx="9.5" ry="15"/><path class="cls-4" d="M180.44,225.58c-.09-35-.44-58.08.56-73.08,1-15.26,14-103,85-98,71.17,5,73,92,73,92l.28,128.3Z"/><path class="cls-10" d="M180.44,225.58c-.09-35-.44-58.08.56-73.08,1-15.26,14-103,85-98,71.17,5,73,92,73,92l.28,128.3Z"/><g class="cls-11"><path class="cls-7" d="M194.33,280l99-12.66s-1.66-12.83.45-23.46l-99.31,9.85S181.89,262.77,194.33,280Z"/><path class="cls-12" d="M195.87,279,301,266s4.71,3.09-2,4S195.8,283,195.8,283s-3.83.93-11.34-5.22l-53.3-54-2.44-22.05,64.9-4.77,102.16,41s13.24,5.25-2,7-99.3,9.12-99.3,9.12-4.84,3.91-4.07,13.92S195.87,279,195.87,279Z"/></g><g class="cls-13"><path class="cls-7" d="M188.72,242.56l84.75-17.37s.14-12.84,3.19-23.64L192,216.1S180.32,225.78,188.72,242.56Z"/><path class="cls-14" d="M190.13,241.51l89.93-18s3.58,2.89-2.14,4.09-88.33,17.94-88.33,17.94-3.34,2.11-8.91-3.72l-38.33-31.91-3.74-37,57.48-5a8.6,8.6,0,0,1,4.95,1l78,26.59s10.51,4.67-2.55,7.1-84.59,13.81-84.59,13.81-4.54,4.16-5.1,14.21S190.13,241.51,190.13,241.51Z"/></g></g></g></svg>