<svg id="back" xmlns="http://www.w3.org/2000/svg" xmlns:xlink="http://www.w3.org/1999/xlink" viewBox="0 0 1920 1199"><defs><style>.cls-1{fill:none;}.cls-2{fill:#20263f;}.cls-3{clip-path:url(#clip-path);}.cls-4{fill:url(#Sfumatura_senza_nome_40);}.cls-5{fill:url(#Sfumatura_senza_nome_13);}.cls-6{fill:url(#Sfumatura_senza_nome_36);}.cls-7{fill:url(#Sfumatura_senza_nome_61);}</style><clipPath id="clip-path"><polygon class="cls-1" points="1920 1079 960 1199 0 1079 0 0 1920 0 1920 1079"/></clipPath><linearGradient id="Sfumatura_senza_nome_40" x1="214.62" y1="1317.59" x2="1704.56" y2="1317.59" gradientTransform="translate(1212.73 -292.62) rotate(45)" gradientUnits="userSpaceOnUse"><stop offset="0" stop-color="#d4145a"/><stop offset="0.97" stop-color="#95268d"/><stop offset="1" stop-color="#93278f"/></linearGradient><linearGradient id="Sfumatura_senza_nome_13" x1="1047.18" y1="400.84" x2="2092.49" y2="400.84" gradientTransform="translate(743.23 -992.64) rotate(45)" gradientUnits="userSpaceOnUse"><stop offset="0" stop-color="#f6bb5d"/><stop offset="0.23" stop-color="#f6b656"/><stop offset="0.56" stop-color="#f6aa42"/><stop offset="0.96" stop-color="#f79622"/><stop offset="1" stop-color="#f7931e"/></linearGradient><linearGradient id="Sfumatura_senza_nome_36" x1="146.62" y1="117.66" x2="1311.73" y2="117.66" gradientTransform="translate(296.76 -481.14) rotate(45)" gradientUnits="userSpaceOnUse"><stop offset="0" stop-color="#d4145a"/><stop offset="1" stop-color="#c1272d"/></linearGradient><linearGradient id="Sfumatura_senza_nome_61" x1="-365.1" y1="920.59" x2="780.28" y2="920.59" gradientTransform="translate(711.75 122.85) rotate(45)" gradientUnits="userSpaceOnUse"><stop offset="0" stop-color="#d4145a"/><stop offset="0" stop-color="#953077"/><stop offset="0" stop-color="#0071bc"/><stop offset="1" stop-color="#00a99d"/></linearGradient></defs><title>home_background</title><polygon class="cls-2" points="1920 1079 960 1199 0 1079 0 0 1920 0 1920 1079"/><polygon class="cls-1" points="1920 1079 960 1199 0 1079 0 0 1920 0 1920 1079"/><g class="cls-3"><rect class="cls-4" x="-36.31" y="1178.41" width="1991.8" height="278.36" rx="139.18" transform="translate(-650.62 1064.44) rotate(-45)"/><rect class="cls-5" x="900.21" y="233.02" width="1339.26" height="335.63" rx="167.82" transform="translate(176.36 1227.44) rotate(-45)"/><rect class="cls-6" x="-18.58" y="-66.07" width="1495.51" height="367.45" rx="183.73" transform="translate(130.37 550.06) rotate(-45)"/><rect class="cls-7" x="-542.91" y="777.17" width="1501" height="286.84" rx="143.42" transform="translate(-590.15 416.42) rotate(-45)"/></g></svg>