<svg xmlns="http://www.w3.org/2000/svg" viewBox="0 0 36 32"><defs><style>.cls-1{fill:#fff;}</style></defs><title>icon_cart</title><g id="Livello_2" data-name="Livello 2"><g id="Livello_1-2" data-name="Livello 1"><path class="cls-1" d="M35.21,6.84a3.65,3.65,0,0,0-2.84-1.38H9.29L8.57,2.71A3.63,3.63,0,0,0,5,0H1.17A1.17,1.17,0,0,0,0,1.15,1.17,1.17,0,0,0,1.17,2.3H5a1.24,1.24,0,0,1,1.21.93l4.63,18.06A3.61,3.61,0,0,0,14.4,24H29.53a3.6,3.6,0,0,0,3.52-2.71L35.89,9.85A3.33,3.33,0,0,0,35.21,6.84Z"/><circle class="cls-1" cx="16" cy="29" r="3"/><path class="cls-1" d="M28,26a3,3,0,1,0,3,3A3,3,0,0,0,28,26Z"/></g></g></svg>