<svg xmlns="http://www.w3.org/2000/svg" viewBox="0 0 149.9 36"><defs><style>.cls-1{fill:#fff;}</style></defs><title>logo_vettoriale</title><g id="Livello_2" data-name="Livello 2"><g id="Livello_1-2" data-name="Livello 1"><path class="cls-1" d="M15.89,10.53a10.84,10.84,0,0,1,2.58,7.32,11,11,0,0,1-2.56,7.36,9,9,0,0,1-7.31,3A23.19,23.19,0,0,1,0,26.31V.32L4.64,0V8a18.66,18.66,0,0,1,4-.47A9,9,0,0,1,15.89,10.53ZM12.26,22.19A6.69,6.69,0,0,0,13.61,18a7,7,0,0,0-1.35-4.34A4.48,4.48,0,0,0,8.5,11.84a10.32,10.32,0,0,0-3.86.76V23a8.37,8.37,0,0,0,3.86.9A4.51,4.51,0,0,0,12.26,22.19Z"/><path class="cls-1" d="M38.21,25.18a9.07,9.07,0,0,1-7.29,3,9.17,9.17,0,0,1-7.36-3A11,11,0,0,1,21,17.78a10.86,10.86,0,0,1,2.57-7.31,9.19,9.19,0,0,1,7.36-3,9.07,9.07,0,0,1,7.29,3,10.93,10.93,0,0,1,2.58,7.36A10.87,10.87,0,0,1,38.21,25.18Zm-3.58-11.7A4.31,4.31,0,0,0,31,11.73a4.48,4.48,0,0,0-3.82,1.75,7.09,7.09,0,0,0-1.29,4.34,7,7,0,0,0,1.29,4.28,4.4,4.4,0,0,0,3.78,1.76,4.3,4.3,0,0,0,3.71-1.78,7.17,7.17,0,0,0,1.3-4.33A7,7,0,0,0,34.63,13.48Z"/><path class="cls-1" d="M59.92,10.53a10.83,10.83,0,0,1,2.57,7.32,11,11,0,0,1-2.55,7.36,9.06,9.06,0,0,1-7.31,3A23.19,23.19,0,0,1,44,26.31V.32L48.67,0V8a18.66,18.66,0,0,1,4-.47A9,9,0,0,1,59.92,10.53ZM56.29,22.19A6.75,6.75,0,0,0,57.63,18a7,7,0,0,0-1.34-4.34,4.5,4.5,0,0,0-3.77-1.78,10.27,10.27,0,0,0-3.85.76V23a8.36,8.36,0,0,0,3.85.9A4.53,4.53,0,0,0,56.29,22.19Z"/><path class="cls-1" d="M82.24,25.18a9.09,9.09,0,0,1-7.29,3,9.17,9.17,0,0,1-7.36-3A11,11,0,0,1,65,17.78a10.86,10.86,0,0,1,2.57-7.31,9.19,9.19,0,0,1,7.36-3,9.09,9.09,0,0,1,7.29,3,10.92,10.92,0,0,1,2.57,7.36A10.86,10.86,0,0,1,82.24,25.18Zm-3.58-11.7A4.33,4.33,0,0,0,75,11.73a4.48,4.48,0,0,0-3.82,1.75,7.09,7.09,0,0,0-1.29,4.34,7,7,0,0,0,1.29,4.28A4.39,4.39,0,0,0,75,23.86a4.31,4.31,0,0,0,3.71-1.78A7.17,7.17,0,0,0,80,17.75,7,7,0,0,0,78.66,13.48Z"/><path class="cls-1" d="M104.56,25.18a9.09,9.09,0,0,1-7.29,3,9.17,9.17,0,0,1-7.36-3,11,11,0,0,1-2.57-7.4,10.81,10.81,0,0,1,2.57-7.31,9.19,9.19,0,0,1,7.36-3,9.09,9.09,0,0,1,7.29,3,10.92,10.92,0,0,1,2.57,7.36A10.86,10.86,0,0,1,104.56,25.18ZM101,13.48a4.31,4.31,0,0,0-3.67-1.75,4.48,4.48,0,0,0-3.82,1.75,7.09,7.09,0,0,0-1.29,4.34,7,7,0,0,0,1.29,4.28,4.4,4.4,0,0,0,3.78,1.76A4.3,4.3,0,0,0,101,22.08a7.17,7.17,0,0,0,1.29-4.33A7,7,0,0,0,101,13.48Z"/><path class="cls-1" d="M115,20.16V27.9h-4.64V.32L115,0V15.62l1.87-.36A7.22,7.22,0,0,0,120.78,13a7.46,7.46,0,0,0,1.33-4.48V7.74h4.5v.79a15,15,0,0,1-1,4.84,10.53,10.53,0,0,1-2.43,3.84l4.93,10.69h-5l-4-8.64Z"/><path class="cls-1" d="M149.9,7.74a33.4,33.4,0,0,1-1.69,7q-1.34,3.87-2.57,6.55t-3.26,6.61a41.75,41.75,0,0,1-2.74,4.89,7.45,7.45,0,0,1-6,3.21,9.23,9.23,0,0,1-3.31-.65A7.08,7.08,0,0,1,128,34l2.48-3.6a6.39,6.39,0,0,0,1.55,1,5.07,5.07,0,0,0,1.8.25,2.79,2.79,0,0,0,1-.18,5,5,0,0,0,.76-.36,2.85,2.85,0,0,0,.66-.68q.38-.51.51-.72l.5-.94.45-.86c0-.12-.36-.74-.94-1.84l-1-2c-.12-.23-.43-.85-.94-1.89s-.84-1.73-1-2.1-.47-1-.89-2-.71-1.67-.88-2.16-.41-1.16-.72-2a19.31,19.31,0,0,1-.68-2.14q-.23-.88-.45-2a19.33,19.33,0,0,1-.34-2.07h4.64q.69,5.76,5.54,15.55,4.5-9.36,5.26-15.55Z"/></g></g></svg>