<svg xmlns="http://www.w3.org/2000/svg" viewBox="0 0 130 130"><defs><style>.cls-1{fill:#00a99d;}</style></defs><title>Stamp</title><g id="Livello_2" data-name="Livello 2"><g id="text"><path class="cls-1" d="M121.88,8.12h-4.31l-.25.23A14.1,14.1,0,0,1,98,8.35a1.51,1.51,0,0,0-.25-.22h-8.6a3.26,3.26,0,0,0-.25.22,14.08,14.08,0,0,1-19.33,0,2.06,2.06,0,0,0-.25-.22H60.7a2.06,2.06,0,0,0-.25.22,14.1,14.1,0,0,1-19.34,0l-.25-.23h-8.6L32,8.35a14.08,14.08,0,0,1-19.33,0l-.25-.23H8.13v4.31a2.06,2.06,0,0,0,.22.25A14.1,14.1,0,0,1,8.35,32a2.06,2.06,0,0,0-.22.25v8.61a3.26,3.26,0,0,0,.22.25,14.1,14.1,0,0,1,0,19.33l-.23.25v8.6l.23.25a14.1,14.1,0,0,1,0,19.33l-.23.25v8.61l.23.25a14.1,14.1,0,0,1,0,19.33l-.23.25v4.3h4.3a2,2,0,0,0,.26-.22,14.08,14.08,0,0,1,19.33,0l.25.23h8.6l.25-.23a14.1,14.1,0,0,1,19.34,0l.25.23h8.6l.25-.23a14.08,14.08,0,0,1,19.33,0l.25.23h8.6a2.4,2.4,0,0,0,.25-.23,14.1,14.1,0,0,1,19.34,0l.25.23h4.31v-4.31l-.23-.25a14.1,14.1,0,0,1,0-19.34,2.4,2.4,0,0,0,.23-.25V89.14l-.23-.25a14.1,14.1,0,0,1,0-19.34l.23-.25V60.7l-.23-.25a14.1,14.1,0,0,1,0-19.34l.23-.25V32.27a2.4,2.4,0,0,0-.23-.25,14.1,14.1,0,0,1,0-19.34l.23-.25V8.12M123.18,0A6.83,6.83,0,0,1,130,6.83h0V13a7.71,7.71,0,0,1-2.44,5.22,6,6,0,0,0,0,8.19A7.73,7.73,0,0,1,130,31.67v9.79a7.75,7.75,0,0,1-2.44,5.23,6,6,0,0,0,0,8.19A7.71,7.71,0,0,1,130,60.1v9.8a7.71,7.71,0,0,1-2.44,5.22,6,6,0,0,0,0,8.19A7.75,7.75,0,0,1,130,88.54v9.79a7.73,7.73,0,0,1-2.44,5.23,6,6,0,0,0,0,8.19A7.71,7.71,0,0,1,130,117v6.2a6.83,6.83,0,0,1-6.83,6.83H117a7.74,7.74,0,0,1-5.22-2.43,6,6,0,0,0-8.19,0A7.79,7.79,0,0,1,98.33,130h-9.8a7.74,7.74,0,0,1-5.22-2.43,6,6,0,0,0-8.19,0A7.74,7.74,0,0,1,69.9,130H60.1a7.79,7.79,0,0,1-5.23-2.43,6,6,0,0,0-8.19,0A7.74,7.74,0,0,1,41.46,130h-9.8a7.74,7.74,0,0,1-5.22-2.43,6,6,0,0,0-8.19,0A7.74,7.74,0,0,1,13,130H6.83A6.83,6.83,0,0,1,0,123.17H0V117a7.74,7.74,0,0,1,2.43-5.22,6,6,0,0,0,0-8.19A7.74,7.74,0,0,1,0,98.34V88.53a7.74,7.74,0,0,1,2.43-5.22,6,6,0,0,0,0-8.19A7.74,7.74,0,0,1,0,69.9V60.1a7.74,7.74,0,0,1,2.43-5.22,6,6,0,0,0,0-8.19A7.74,7.74,0,0,1,0,41.47V31.66a7.74,7.74,0,0,1,2.43-5.22,6,6,0,0,0,0-8.19A7.74,7.74,0,0,1,0,13V6.83A6.83,6.83,0,0,1,6.82,0H13a7.74,7.74,0,0,1,5.22,2.43,6,6,0,0,0,8.19,0A7.74,7.74,0,0,1,31.66,0h9.8a7.74,7.74,0,0,1,5.22,2.43,6,6,0,0,0,8.19,0A7.79,7.79,0,0,1,60.1,0h9.8a7.74,7.74,0,0,1,5.22,2.43,6,6,0,0,0,8.19,0A7.74,7.74,0,0,1,88.53,0h9.8a7.79,7.79,0,0,1,5.23,2.43,6,6,0,0,0,8.19,0A7.74,7.74,0,0,1,117,0ZM99.33,15.9A14.78,14.78,0,0,1,114.1,30.67V99.33A14.78,14.78,0,0,1,99.33,114.1H30.67A14.78,14.78,0,0,1,15.9,99.33V30.67A14.78,14.78,0,0,1,30.67,15.9Z"/></g></g></svg>